<svg aria-hidden="true" style="position: absolute; width: 0; height: 0; overflow: hidden;" version="1.1" xmlns="http://www.w3.org/2000/svg" xmlns:xlink="http://www.w3.org/1999/xlink">
<defs>
<symbol id="icon-resize-100" viewBox="0 0 20 20">
<path d="M4.1 14.1l-3.1 2.9 2 2 2.9-3.1 2.1 2.1v-6h-6l2.1 2.1zM19 3l-2-2-2.9 3.1-2.1-2.1v6h6l-2.1-2.1 3.1-2.9z"></path>
</symbol>
<symbol id="icon-back-in-time" viewBox="0 0 20 20">
<path d="M11 1.799c-4.445 0-8.061 3.562-8.169 7.996v0.205h-2.372l3.594 3.894 3.494-3.894h-2.672v-0.205c0.107-3.303 2.808-5.945 6.125-5.945 3.386 0 6.131 2.754 6.131 6.15s-2.745 6.15-6.131 6.15c-1.357 0-2.611-0.445-3.627-1.193l-1.406 1.504c1.388 1.088 3.135 1.738 5.033 1.738 4.515 0 8.174-3.67 8.174-8.199s-3.659-8.201-8.174-8.201zM10 5v5c0 0.13 0.027 0.26 0.077 0.382s0.124 0.233 0.216 0.325l3.2 3.2c0.283-0.183 0.55-0.389 0.787-0.628l-2.28-2.279v-6h-2z"></path>
</symbol>
<symbol id="icon-colours" viewBox="0 0 20 20">
<path d="M3.179 5.998c-0.423-0.35-1.057-0.29-1.408 0.132l-1.277 1.539c-0.35 0.423-0.291 1.058 0.131 1.407l7.888 6.542-3.807-8.354-1.527-1.266zM7.013 2.683l-1.82 0.829c-0.499 0.228-0.722 0.825-0.495 1.324l4.25 9.325 0.213-9.179-0.822-1.804c-0.23-0.5-0.826-0.723-1.326-0.495zM14.211 2.887c0.013-0.55-0.427-1.010-0.976-1.023l-2-0.046c-0.549-0.013-1.009 0.427-1.022 0.976l-0.239 10.243 4.19-8.167 0.047-1.983zM19.191 3.837l-1.779-0.913c-0.489-0.25-1.096-0.055-1.347 0.434l-6.391 12.456c-0.251 0.489-0.056 1.096 0.434 1.347l1.779 0.913c0.489 0.251 1.095 0.056 1.346-0.433l6.391-12.456c0.251-0.491 0.056-1.097-0.433-1.348zM12.799 16.293c-0.252 0.492-0.855 0.686-1.346 0.434s-0.685-0.854-0.433-1.346 0.854-0.685 1.346-0.433c0.492 0.251 0.685 0.854 0.433 1.345z"></path>
</symbol>
<symbol id="icon-credit" viewBox="0 0 20 20">
<path d="M11 16.755v2.245h-2v-2.143c-1.712-0.1-3.066-0.589-4.241-1.797l1.718-1.74c0.859 0.87 2.023 1.16 3.282 1.16 1.565 0 2.405-0.599 2.405-1.702 0-0.483-0.133-0.889-0.42-1.16-0.267-0.251-0.572-0.387-1.202-0.483l-1.642-0.232c-1.164-0.174-2.022-0.541-2.634-1.141-0.648-0.657-0.973-1.546-0.973-2.707 0-2.155 1.382-3.743 3.707-4.1v-1.955h2v1.932c1.382 0.145 2.465 0.62 3.415 1.551l-1.679 1.682c-0.859-0.832-1.889-0.947-2.787-0.947-1.412 0-2.099 0.792-2.099 1.74 0 0.348 0.115 0.716 0.401 0.986 0.267 0.252 0.706 0.464 1.26 0.541l1.602 0.232c1.241 0.174 2.023 0.522 2.596 1.063 0.726 0.696 1.050 1.702 1.050 2.92 0 2.25-1.567 3.662-3.759 4.055z"></path>
</symbol>
<symbol id="icon-feather" viewBox="0 0 20 20">
<path d="M4.254 19.567c0.307-0.982 0.77-2.364 1.391-4.362 2.707-0.429 3.827 0.341 5.546-2.729-1.395 0.427-3.077-0.792-2.987-1.321s3.913 0.381 6.416-3.173c-3.155 0.696-4.164-0.836-3.757-1.067 0.939-0.534 3.726-0.222 5.212-1.669 0.766-0.745 1.125-2.556 0.813-3.202-0.374-0.781-2.656-1.946-3.914-1.836s-3.231 4.79-3.817 4.754c-0.584-0.037-0.703-2.098 0.319-4.013-1.077 0.477-3.051 1.959-3.67 3.226-1.153 2.357 0.108 7.766-0.296 7.958s-1.766-2.481-2.172-3.694c-0.555 1.859-0.568 3.721 1.053 6.194-0.611 1.623-0.945 3.491-0.996 4.441-0.024 0.759 0.724 0.922 0.859 0.493z"></path>
</symbol>
<symbol id="icon-globe" viewBox="0 0 20 20">
<path d="M10 0.4c-5.295 0-9.601 4.307-9.601 9.6s4.306 9.6 9.601 9.6c5.293 0 9.6-4.307 9.6-9.6s-4.307-9.6-9.6-9.6zM18.188 10c0 1.873-0.636 3.6-1.696 4.98-0.3-0.234-0.619-0.867-0.319-1.523 0.303-0.66 0.382-2.188 0.312-2.783-0.066-0.594-0.375-2.025-1.214-2.039-0.838-0.012-1.413-0.289-1.911-1.283-1.033-2.068 1.939-2.465 0.906-3.609-0.289-0.322-1.783 1.322-2.002-0.869-0.014-0.157 0.135-0.392 0.336-0.636 3.244 1.090 5.588 4.157 5.588 7.762zM8.875 1.893c-0.196 0.382-0.713 0.537-1.027 0.824-0.684 0.619-0.978 0.533-1.346 1.127-0.371 0.594-1.567 1.449-1.567 1.879s0.604 0.936 0.906 0.838c0.302-0.1 1.099-0.094 1.567 0.070 0.469 0.166 3.914 0.332 2.816 3.244-0.348 0.926-1.873 0.77-2.279 2.303-0.061 0.225-0.272 1.186-0.285 1.5-0.025 0.486 0.344 2.318-0.125 2.318-0.471 0-1.738-1.639-1.738-1.936s-0.328-1.338-0.328-2.23c0-0.891-1.518-0.877-1.518-2.062 0-1.068 0.823-1.6 0.638-2.113-0.181-0.51-1.627-0.527-2.23-0.59 1.053-2.731 3.53-4.758 6.516-5.172zM7.424 17.77c0.492-0.26 0.542-0.596 0.988-0.613 0.51-0.023 0.925-0.199 1.5-0.326 0.51-0.111 1.423-0.629 2.226-0.695 0.678-0.055 2.015 0.035 2.375 0.689-1.295 0.861-2.848 1.363-4.514 1.363-0.899 0-1.765-0.149-2.575-0.418z"></path>
</symbol>
<symbol id="icon-hair-cross" viewBox="0 0 20 20">
<path d="M10 0.4c-5.303 0-9.601 4.298-9.601 9.6 0 5.303 4.298 9.601 9.601 9.601 5.301 0 9.6-4.298 9.6-9.601s-4.299-9.6-9.6-9.6zM11 17.525v-4.525h-2v4.525c-3.396-0.446-6.080-3.129-6.527-6.525h4.527v-2h-4.527c0.447-3.396 3.131-6.079 6.527-6.525v4.525h2v-4.525c3.394 0.447 6.078 3.13 6.525 6.525h-4.525v2h4.525c-0.447 3.394-3.131 6.078-6.525 6.525z"></path>
</symbol>
<symbol id="icon-heart" viewBox="0 0 20 20">
<path d="M17.19 4.155c-1.672-1.534-4.383-1.534-6.055 0l-1.135 1.042-1.136-1.042c-1.672-1.534-4.382-1.534-6.054 0-1.881 1.727-1.881 4.52 0 6.246l7.19 6.599 7.19-6.599c1.88-1.726 1.88-4.52 0-6.246z"></path>
</symbol>
<symbol id="icon-hour-glass" viewBox="0 0 20 20">
<path d="M15.6 4.576c0-2.139 0-2.348 0-2.348 0-0.789-2.508-2.228-5.6-2.228-3.093 0-5.6 1.439-5.6 2.228 0 0 0 0.209 0 2.348 0 2.141 3.877 3.908 3.877 5.424 0 1.514-3.877 3.281-3.877 5.422s0 2.35 0 2.35c0 0.788 2.507 2.228 5.6 2.228 3.092 0 5.6-1.44 5.6-2.229 0 0 0-0.209 0-2.35s-3.877-3.908-3.877-5.422c0-1.515 3.877-3.282 3.877-5.423zM5.941 2.328c0.696-0.439 2-1.082 4.114-1.082s4.006 1.082 4.006 1.082c0.142 0.086 0.698 0.383 0.317 0.609-0.838 0.497-2.478 1.020-4.378 1.020s-3.484-0.576-4.324-1.074c-0.381-0.225 0.265-0.555 0.265-0.555zM10.501 10c0 1.193 0.996 1.961 2.051 2.986 0.771 0.748 1.826 1.773 1.826 2.435v1.328c-0.97-0.483-3.872-0.955-3.872-2.504 0-0.783-1.013-0.783-1.013 0 0 1.549-2.902 2.021-3.872 2.504v-1.328c0-0.662 1.056-1.688 1.826-2.435 1.055-1.025 2.051-1.793 2.051-2.986s-0.996-1.961-2.051-2.986c-0.771-0.75-1.826-1.775-1.826-2.438l-0.046-0.998c1.026 0.553 2.652 1.078 4.425 1.078 1.772 0 3.406-0.525 4.433-1.078l-0.055 0.998c0 0.662-1.056 1.688-1.826 2.438-1.054 1.025-2.051 1.793-2.051 2.986z"></path>
</symbol>
<symbol id="icon-lab-flask" viewBox="0 0 20 20">
<path d="M16.432 15c-2.045-5.107-4.432-6.453-4.432-9v-3h0.5c0.276 0 0.5-0.224 0.5-0.5v-1c0-0.276-0.224-0.5-0.5-0.5h-5c-0.276 0-0.5 0.224-0.5 0.5v1c0 0.276 0.224 0.5 0.5 0.5h0.5v3c0 2.547-2.387 3.893-4.432 9-0.651 1.625-2.323 4 6.432 4s7.083-2.375 6.432-4zM14.815 16.751c-0.702 0.21-2.099 0.449-4.815 0.449s-4.113-0.239-4.815-0.449c-0.249-0.074-0.346-0.363-0.258-0.628 0.22-0.67 0.635-1.828 1.411-3.121 1.896-3.159 3.863 0.497 5.5 0.497s1.188-1.561 1.824-0.497c0.774 1.294 1.191 2.451 1.411 3.121 0.088 0.265-0.009 0.553-0.258 0.628z"></path>
</symbol>
<symbol id="icon-map" viewBox="0 0 20 20">
<path d="M19.447 3.718l-6-3c-0.281-0.141-0.613-0.141-0.895 0l-5.63 2.815-5.606-1.869c-0.306-0.102-0.64-0.051-0.901 0.138s-0.415 0.49-0.415 0.811v13.001c0 0.379 0.214 0.725 0.553 0.894l6 3c0.141 0.070 0.294 0.106 0.447 0.106s0.307-0.035 0.447-0.106l5.63-2.814 5.606 1.869c0.305 0.1 0.64 0.049 0.901-0.139s0.415-0.49 0.415-0.81v-13.002c0.001-0.379-0.213-0.725-0.552-0.894zM8 5.231l4-2v11.763l-4 2v-11.763zM2 4l4 1.333v11.661l-4-2v-10.994zM18 16.227l-4-1.334v-11.662l4 2v10.996z"></path>
</symbol>
<symbol id="icon-new-message" viewBox="0 0 20 20">
<path d="M18.174 1.826c-1.102-1.102-2.082-0.777-2.082-0.777l-8.639 8.632-1.453 4.319 4.317-1.454 8.634-8.638c0 0 0.324-0.98-0.777-2.082zM10.605 11.605l-0.471 0.47-1.473 0.5c-0.104-0.24-0.234-0.477-0.498-0.74s-0.5-0.394-0.74-0.498l0.5-1.473 0.471-0.47c0 0 0.776-0.089 1.537 0.673 0.762 0.761 0.674 1.538 0.674 1.538zM16 17h-13v-13h5l2-2h-7c-1.1 0-2 0.9-2 2v13c0 1.1 0.9 2 2 2h13c1.1 0 2-0.9 2-2v-7l-2 2v5z"></path>
</symbol>
<symbol id="icon-tree" viewBox="0 0 20 20">
<path d="M20 10c0-1.361-0.758-2.616-2.031-3.622-0.002-0.001-0.004-0.001-0.005-0.003-0.362-3.572-3.787-6.375-7.964-6.375s-7.602 2.803-7.964 6.375c-0.001 0.002-0.003 0.002-0.005 0.003-1.273 1.006-2.031 2.261-2.031 3.622 0 3.112 3.947 5.669 9 5.97 0 0.338 0 0.683 0 1.030 0 1-1.821 1.911-1.821 1.911-0.099 0.049-0.148 0.173-0.109 0.277 0 0 0.305 0.812 0.93 0.812s1.124-0.5 2.374-0.5 2.439 0.432 2.439 0.432c0.102 0.038 0.251 0.005 0.329-0.073l0.717-0.717c0.078-0.078 0.058-0.173-0.046-0.212 0 0-1.812-0.68-1.812-1.93 0-0.312 0-0.706 0-1.121 4.564-0.555 7.999-2.976 7.999-5.879zM2 10c0-1.019 0.768-1.945 2.022-2.651-0.010-0.116-0.022-0.232-0.022-0.349 0-2.762 2.687-5 6-5s6 2.238 6 5c0 0.117-0.012 0.233-0.021 0.349 1.253 0.706 2.021 1.632 2.021 2.651 0 1.864-2.551 3.424-5.999 3.869 0-0.401 0-0.668 0-0.668 0-0.11 0.065-0.262 0.145-0.337l1.833-1.726c0.080-0.076 0.146-0.227 0.146-0.337v-0.851c0-0.11-0.078-0.155-0.172-0.099l-1.779 1.047c-0.096 0.056-0.173 0.012-0.173-0.099v-3.599c0-0.11-0.085-0.172-0.19-0.137l-2.621 0.874c-0.104 0.035-0.189 0.153-0.189 0.263v2.6c0 0.11-0.079 0.158-0.177 0.107l-2.022-1.064c-0.097-0.051-0.24-0.030-0.318 0.048l-0.342 0.342c-0.078 0.078-0.073 0.201 0.009 0.273l2.7 2.361c0.083 0.073 0.15 0.222 0.15 0.332 0 0 0 0.298 0 0.765-3.945-0.245-7.001-1.924-7.001-3.964z"></path>
</symbol>
<symbol id="icon-trophy" viewBox="0 0 20 20">
<path d="M11.18 14.356c0-1.451 1.1-2.254 2.894-3.442 2.194-1.456 4.926-3.265 4.926-7.56 0-0.387-0.317-0.699-0.709-0.699h-3.43c-0.484-0.896-1.929-1.855-4.861-1.855-2.934 0-4.377 0.959-4.862 1.855h-3.431c-0.391 0-0.707 0.313-0.707 0.699 0 4.295 2.73 6.104 4.926 7.559 1.794 1.188 2.894 1.991 2.894 3.442v1.311c-1.884 0.209-3.269 0.906-3.269 1.736 0 0.994 1.992 1.799 4.449 1.799s4.449-0.805 4.449-1.799c0-0.83-1.385-1.527-3.269-1.736v-1.31zM13.957 9.3c0.566-1.199 1.016-2.826 1.088-5.246h2.51c-0.24 2.701-1.862 4.064-3.598 5.246zM10 2.026c2.732-0.002 3.799 1.115 3.798 1.529 0 0.418-1.066 1.533-3.798 1.535-2.732-0.001-3.799-1.116-3.799-1.534-0.001-0.414 1.067-1.532 3.799-1.53zM2.445 4.054h2.509c0.073 2.42 0.521 4.047 1.089 5.246-1.736-1.182-3.359-2.545-3.598-5.246z"></path>
</symbol>
<symbol id="icon-water" viewBox="0 0 20 20">
<path d="M9.882 9.093c-0.511 4.115-3.121 4.847-3.121 7.708 0 1.766 1.483 3.199 3.239 3.199s3.238-1.434 3.238-3.199c0-2.861-2.61-3.593-3.121-7.708-0.016-0.123-0.219-0.123-0.235 0zM3.883 0.093c-0.511 4.115-3.121 4.846-3.121 7.708 0 1.765 1.482 3.199 3.238 3.199s3.238-1.434 3.238-3.199c0-2.861-2.61-3.593-3.121-7.708-0.015-0.123-0.219-0.123-0.234 0zM15.883 0.093c-0.511 4.115-3.121 4.847-3.121 7.708 0 1.765 1.482 3.199 3.238 3.199s3.238-1.434 3.238-3.199c0-2.861-2.61-3.593-3.121-7.708-0.016-0.123-0.219-0.123-0.234 0z"></path>
</symbol>
</defs>
</svg>
